<?xml version="1.0" encoding="UTF-8"?>

<svg xmlns="http://www.w3.org/2000/svg" version="1.1"
	width="594mm"
	height="420mm"
	viewBox="0 0 594 420">
	<!-- Working space 0 0 594 420 -->
	<defs>
		<radialGradient
			id="radialGradient3661"
			gradientUnits="userSpaceOnUse"
			cy="29.149"
			cx="282.65"
			gradientTransform="matrix(.14777 .23089 -.24680 .15795 -26.318 -62.617)"
			r="19.571">
				<stop stop-color="#71b2f8" offset="0"/>
				<stop stop-color="#002795" offset="1"/>
		</radialGradient>
		<radialGradient
			id="radialGradient3817"
			gradientUnits="userSpaceOnUse"
			cy="33.9"
			cx="270.58"
			gradientTransform="matrix(.26631 .065024 -.17931 .73438 -60.668 -36.938)"
			r="19.571">
				<stop stop-color="#ff6d0f" offset="0"/>
				<stop stop-color="#ff1000" offset="1"/>
		</radialGradient>
	</defs>
	<!-- Set display:none to hide FreeCAD Logo -->
	<g
		style="display:inline"
		id="freecad-logo"
		transform="translate(552, 380) scale(2)"
		fill-rule="evenodd"
		stroke-width=".45621">
		<path d="m0.22811 0.22835v13.256h2.9558v-5.1876h2.09v-2.0452h-2.09v-2.2075h5.1486v-3.8087l-8.1044-0.0075z"
			stroke="#370700"
			fill="url(#radialGradient3817)"/>
		<path d="m13.386 4.1792-1.7193 0.98645-0.75925-0.26348-0.72439-1.8513-1.1395 0.05988-0.51976 1.9144-0.72743 0.34835-1.8143-0.79367-0.76632 0.85156 0.98645 1.7193-0.26957 0.75702-1.8513 0.72439 0.065967 1.1417 1.9144 0.51976 0.34835 0.72743-0.79976 1.8121 0.85156 0.76632 1.7193-0.98645 0.76311 0.27179 0.7183 1.8491 1.1478-0.06375 0.51367-1.9166 0.72743-0.34835 1.8182 0.80198 0.76632-0.85156-0.98645-1.7193 0.2657-0.76533 1.8491-0.7183-0.05766-1.1456-1.9166-0.51367-0.34835-0.72743 0.7959-1.8204-0.85156-0.76632zm-2.5751 2.8195 0.35295 0.20478 0.30579 0.27725 0.24481 0.33087 0.17611 0.36787 0.10354 0.39656 0.01715 0.4064-0.0587 0.4063-0.13396 0.38571-0.2131 0.35681-0.26894 0.30192-0.33087 0.24481-0.36787 0.17611-0.39656 0.10354-0.40863 0.02325-0.4063-0.0587-0.38571-0.13396-0.35681-0.2131-0.2997-0.27503-0.24703-0.32478-0.17611-0.36787-0.10132-0.40264-0.02324-0.40863 0.05869-0.4063 0.13396-0.38571 0.21087-0.35072 0.27116-0.30801 0.33087-0.24481 0.36787-0.17611 0.40264-0.10132 0.40641-0.01715 0.4063 0.05869 0.38571 0.13396z" 
		stroke="#000137"
		fill="url(#radialGradient3661)"/>
	</g>
<g id="Ortho_0_0"
   transform="rotate(0,72,255) translate(72,255) scale(1,1)"
  >
<g   fill="none"
   stroke="rgb(0, 0, 0)"
   stroke-linecap="butt"
   stroke-linejoin="miter"
   stroke-width="0.350000"
   transform="scale(1,-1)"
  >
<path id= "1" d=" M 100 0 L 100 -4 " />
<path id= "2" d=" M 100 0 L 175 0 " />
<path id= "3" d=" M 175 -4 L 175 0 " />
<path id= "4" d=" M 275 -4 L 175 -4 " />
<path id= "5" d=" M 275 0 L 275 -4 " />
<path id= "6" d=" M 275 0 L 350 0 " />
<path id= "7" d=" M 350 -4 L 350 0 " />
<path id= "8" d=" M 450 -4 L 350 -4 " />
<path id= "9" d=" M 100 -4 L 0 -4 " />
<path id= "10" d=" M 350 94 L 450 94 " />
<path id= "11" d=" M 350 90 L 350 94 " />
<path id= "12" d=" M 350 90 L 275 90 " />
<path id= "13" d=" M 275 94 L 275 90 " />
<path id= "14" d=" M 175 94 L 275 94 " />
<path id= "15" d=" M 175 90 L 175 94 " />
<path id= "16" d=" M 175 90 L 100 90 " />
<path id= "17" d=" M 100 94 L 100 90 " />
<path id= "18" d=" M 0 94 L 100 94 " />
<path id= "19" d=" M 128 75 L 132 75 " />
<path id= "20" d=" M 132 75 L 132 15 " />
<path id= "21" d=" M 132 15 L 128 15 " />
<path id= "22" d=" M 128 15 L 128 75 " />
<path id= "23" d=" M 148 75 L 152 75 " />
<path id= "24" d=" M 152 75 L 152 15 " />
<path id= "25" d=" M 152 15 L 148 15 " />
<path id= "26" d=" M 148 15 L 148 75 " />
<path id= "27" d=" M 158 75 L 162 75 " />
<path id= "28" d=" M 162 75 L 162 15 " />
<path id= "29" d=" M 162 15 L 158 15 " />
<path id= "30" d=" M 158 15 L 158 75 " />
<path id= "31" d=" M 168 75 L 172 75 " />
<path id= "32" d=" M 172 75 L 172 15 " />
<path id= "33" d=" M 172 15 L 168 15 " />
<path id= "34" d=" M 168 15 L 168 75 " />
<path id= "35" d=" M 178 75 L 182 75 " />
<path id= "36" d=" M 182 75 L 182 15 " />
<path id= "37" d=" M 182 15 L 178 15 " />
<path id= "38" d=" M 178 15 L 178 75 " />
<path id= "39" d=" M 188 75 L 192 75 " />
<path id= "40" d=" M 192 75 L 192 15 " />
<path id= "41" d=" M 192 15 L 188 15 " />
<path id= "42" d=" M 188 15 L 188 75 " />
<path id= "43" d=" M 198 75 L 202 75 " />
<path id= "44" d=" M 202 75 L 202 15 " />
<path id= "45" d=" M 202 15 L 198 15 " />
<path id= "46" d=" M 198 15 L 198 75 " />
<path id= "47" d=" M 208 75 L 212 75 " />
<path id= "48" d=" M 212 75 L 212 15 " />
<path id= "49" d=" M 212 15 L 208 15 " />
<path id= "50" d=" M 208 15 L 208 75 " />
<path id= "51" d=" M 218 75 L 222 75 " />
<path id= "52" d=" M 222 75 L 222 15 " />
<path id= "53" d=" M 222 15 L 218 15 " />
<path id= "54" d=" M 218 15 L 218 75 " />
<path id= "55" d=" M 228 75 L 232 75 " />
<path id= "56" d=" M 232 75 L 232 15 " />
<path id= "57" d=" M 232 15 L 228 15 " />
<path id= "58" d=" M 228 15 L 228 75 " />
<path id= "59" d=" M 238 75 L 242 75 " />
<path id= "60" d=" M 242 75 L 242 15 " />
<path id= "61" d=" M 242 15 L 238 15 " />
<path id= "62" d=" M 238 15 L 238 75 " />
<path id= "63" d=" M 248 75 L 252 75 " />
<path id= "64" d=" M 252 75 L 252 15 " />
<path id= "65" d=" M 252 15 L 248 15 " />
<path id= "66" d=" M 248 15 L 248 75 " />
<path id= "67" d=" M 258 75 L 262 75 " />
<path id= "68" d=" M 262 75 L 262 15 " />
<path id= "69" d=" M 262 15 L 258 15 " />
<path id= "70" d=" M 258 15 L 258 75 " />
<path id= "71" d=" M 268 75 L 272 75 " />
<path id= "72" d=" M 272 75 L 272 15 " />
<path id= "73" d=" M 272 15 L 268 15 " />
<path id= "74" d=" M 268 15 L 268 75 " />
<path id= "75" d=" M 118 75 L 122 75 " />
<path id= "76" d=" M 122 75 L 122 15 " />
<path id= "77" d=" M 122 15 L 118 15 " />
<path id= "78" d=" M 118 15 L 118 75 " />
<path id= "79" d=" M 108 75 L 112 75 " />
<path id= "80" d=" M 112 75 L 112 15 " />
<path id= "81" d=" M 112 15 L 108 15 " />
<path id= "82" d=" M 108 15 L 108 75 " />
<path id= "83" d=" M 98 75 L 102 75 " />
<path id= "84" d=" M 102 75 L 102 15 " />
<path id= "85" d=" M 102 15 L 98 15 " />
<path id= "86" d=" M 98 15 L 98 75 " />
<path id= "87" d=" M 88 75 L 92 75 " />
<path id= "88" d=" M 92 75 L 92 15 " />
<path id= "89" d=" M 92 15 L 88 15 " />
<path id= "90" d=" M 88 15 L 88 75 " />
<path id= "91" d=" M 78 75 L 82 75 " />
<path id= "92" d=" M 82 75 L 82 15 " />
<path id= "93" d=" M 82 15 L 78 15 " />
<path id= "94" d=" M 78 15 L 78 75 " />
<path id= "95" d=" M 328 75 L 332 75 " />
<path id= "96" d=" M 332 75 L 332 15 " />
<path id= "97" d=" M 332 15 L 328 15 " />
<path id= "98" d=" M 328 15 L 328 75 " />
<path id= "99" d=" M 68 75 L 72 75 " />
<path id= "100" d=" M 72 75 L 72 15 " />
<path id= "101" d=" M 72 15 L 68 15 " />
<path id= "102" d=" M 68 15 L 68 75 " />
<path id= "103" d=" M 48 75 L 52 75 " />
<path id= "104" d=" M 52 75 L 52 15 " />
<path id= "105" d=" M 52 15 L 48 15 " />
<path id= "106" d=" M 48 15 L 48 75 " />
<path id= "107" d=" M 368 75 L 372 75 " />
<path id= "108" d=" M 372 75 L 372 15 " />
<path id= "109" d=" M 372 15 L 368 15 " />
<path id= "110" d=" M 368 15 L 368 75 " />
<path id= "111" d=" M 38 75 L 42 75 " />
<path id= "112" d=" M 42 75 L 42 15 " />
<path id= "113" d=" M 42 15 L 38 15 " />
<path id= "114" d=" M 38 15 L 38 75 " />
<path id= "115" d=" M 388 75 L 392 75 " />
<path id= "116" d=" M 392 75 L 392 15 " />
<path id= "117" d=" M 392 15 L 388 15 " />
<path id= "118" d=" M 388 15 L 388 75 " />
<path id= "119" d=" M 398 75 L 402 75 " />
<path id= "120" d=" M 402 75 L 402 15 " />
<path id= "121" d=" M 402 15 L 398 15 " />
<path id= "122" d=" M 398 15 L 398 75 " />
<path id= "123" d=" M 28 75 L 32 75 " />
<path id= "124" d=" M 32 75 L 32 15 " />
<path id= "125" d=" M 32 15 L 28 15 " />
<path id= "126" d=" M 28 15 L 28 75 " />
<path id= "127" d=" M 138 75 L 142 75 " />
<path id= "128" d=" M 142 75 L 142 15 " />
<path id= "129" d=" M 142 15 L 138 15 " />
<path id= "130" d=" M 138 15 L 138 75 " />
<path id= "131" d=" M 58 75 L 62 75 " />
<path id= "132" d=" M 62 75 L 62 15 " />
<path id= "133" d=" M 62 15 L 58 15 " />
<path id= "134" d=" M 58 15 L 58 75 " />
<path id= "135" d=" M 278 75 L 282 75 " />
<path id= "136" d=" M 282 75 L 282 15 " />
<path id= "137" d=" M 282 15 L 278 15 " />
<path id= "138" d=" M 278 15 L 278 75 " />
<path id= "139" d=" M 288 75 L 292 75 " />
<path id= "140" d=" M 292 75 L 292 15 " />
<path id= "141" d=" M 292 15 L 288 15 " />
<path id= "142" d=" M 288 15 L 288 75 " />
<path id= "143" d=" M 298 75 L 302 75 " />
<path id= "144" d=" M 302 75 L 302 15 " />
<path id= "145" d=" M 302 15 L 298 15 " />
<path id= "146" d=" M 298 15 L 298 75 " />
<path id= "147" d=" M 308 75 L 312 75 " />
<path id= "148" d=" M 312 75 L 312 15 " />
<path id= "149" d=" M 312 15 L 308 15 " />
<path id= "150" d=" M 308 15 L 308 75 " />
<path id= "151" d=" M 318 75 L 322 75 " />
<path id= "152" d=" M 322 75 L 322 15 " />
<path id= "153" d=" M 322 15 L 318 15 " />
<path id= "154" d=" M 318 15 L 318 75 " />
<path id= "155" d=" M 338 75 L 342 75 " />
<path id= "156" d=" M 342 75 L 342 15 " />
<path id= "157" d=" M 342 15 L 338 15 " />
<path id= "158" d=" M 338 15 L 338 75 " />
<path id= "159" d=" M 348 75 L 352 75 " />
<path id= "160" d=" M 352 75 L 352 15 " />
<path id= "161" d=" M 352 15 L 348 15 " />
<path id= "162" d=" M 348 15 L 348 75 " />
<path id= "163" d=" M 358 75 L 362 75 " />
<path id= "164" d=" M 362 75 L 362 15 " />
<path id= "165" d=" M 362 15 L 358 15 " />
<path id= "166" d=" M 358 15 L 358 75 " />
<path id= "167" d=" M 378 75 L 382 75 " />
<path id= "168" d=" M 382 75 L 382 15 " />
<path id= "169" d=" M 382 15 L 378 15 " />
<path id= "170" d=" M 378 15 L 378 75 " />
<path id= "171" d=" M 408 75 L 412 75 " />
<path id= "172" d=" M 412 75 L 412 15 " />
<path id= "173" d=" M 412 15 L 408 15 " />
<path id= "174" d=" M 408 15 L 408 75 " />
<path id= "175" d=" M 418 75 L 422 75 " />
<path id= "176" d=" M 422 75 L 422 15 " />
<path id= "177" d=" M 422 15 L 418 15 " />
<path id= "178" d=" M 418 15 L 418 75 " />
<path id= "179" d=" M 442 85 L 446 85 " />
<path id= "180" d=" M 446 85 L 446 75 " />
<path id= "181" d=" M 446 75 L 442 75 " />
<path id= "182" d=" M 442 75 L 442 85 " />
<path id= "183" d=" M 4 85 L 8 85 " />
<path id= "184" d=" M 8 85 L 8 75 " />
<path id= "185" d=" M 8 75 L 4 75 " />
<path id= "186" d=" M 4 75 L 4 85 " />
<path id= "187" d=" M 442 15 L 446 15 " />
<path id= "188" d=" M 446 15 L 446 5 " />
<path id= "189" d=" M 446 5 L 442 5 " />
<path id= "190" d=" M 442 5 L 442 15 " />
<path id= "191" d=" M 4 15 L 8 15 " />
<path id= "192" d=" M 8 15 L 8 5 " />
<path id= "193" d=" M 8 5 L 4 5 " />
<path id= "194" d=" M 4 5 L 4 15 " />
<path id= "195" d=" M 450 94 L 450 -4 " />
<path id= "196" d=" M 0 -4 L 0 94 " />
</g>
</g>



</svg>

