<?xml version="1.0" encoding="UTF-8"?>

<svg xmlns="http://www.w3.org/2000/svg" version="1.1"
	width="594mm"
	height="420mm"
	viewBox="0 0 594 420">
	<!-- Working space 0 0 594 420 -->
	<defs>
		<radialGradient
			id="radialGradient3661"
			gradientUnits="userSpaceOnUse"
			cy="29.149"
			cx="282.65"
			gradientTransform="matrix(.14777 .23089 -.24680 .15795 -26.318 -62.617)"
			r="19.571">
				<stop stop-color="#71b2f8" offset="0"/>
				<stop stop-color="#002795" offset="1"/>
		</radialGradient>
		<radialGradient
			id="radialGradient3817"
			gradientUnits="userSpaceOnUse"
			cy="33.9"
			cx="270.58"
			gradientTransform="matrix(.26631 .065024 -.17931 .73438 -60.668 -36.938)"
			r="19.571">
				<stop stop-color="#ff6d0f" offset="0"/>
				<stop stop-color="#ff1000" offset="1"/>
		</radialGradient>
	</defs>
	<!-- Set display:none to hide FreeCAD Logo -->
	<g
		style="display:inline"
		id="freecad-logo"
		transform="translate(552, 380) scale(2)"
		fill-rule="evenodd"
		stroke-width=".45621">
		<path d="m0.22811 0.22835v13.256h2.9558v-5.1876h2.09v-2.0452h-2.09v-2.2075h5.1486v-3.8087l-8.1044-0.0075z"
			stroke="#370700"
			fill="url(#radialGradient3817)"/>
		<path d="m13.386 4.1792-1.7193 0.98645-0.75925-0.26348-0.72439-1.8513-1.1395 0.05988-0.51976 1.9144-0.72743 0.34835-1.8143-0.79367-0.76632 0.85156 0.98645 1.7193-0.26957 0.75702-1.8513 0.72439 0.065967 1.1417 1.9144 0.51976 0.34835 0.72743-0.79976 1.8121 0.85156 0.76632 1.7193-0.98645 0.76311 0.27179 0.7183 1.8491 1.1478-0.06375 0.51367-1.9166 0.72743-0.34835 1.8182 0.80198 0.76632-0.85156-0.98645-1.7193 0.2657-0.76533 1.8491-0.7183-0.05766-1.1456-1.9166-0.51367-0.34835-0.72743 0.7959-1.8204-0.85156-0.76632zm-2.5751 2.8195 0.35295 0.20478 0.30579 0.27725 0.24481 0.33087 0.17611 0.36787 0.10354 0.39656 0.01715 0.4064-0.0587 0.4063-0.13396 0.38571-0.2131 0.35681-0.26894 0.30192-0.33087 0.24481-0.36787 0.17611-0.39656 0.10354-0.40863 0.02325-0.4063-0.0587-0.38571-0.13396-0.35681-0.2131-0.2997-0.27503-0.24703-0.32478-0.17611-0.36787-0.10132-0.40264-0.02324-0.40863 0.05869-0.4063 0.13396-0.38571 0.21087-0.35072 0.27116-0.30801 0.33087-0.24481 0.36787-0.17611 0.40264-0.10132 0.40641-0.01715 0.4063 0.05869 0.38571 0.13396z" 
		stroke="#000137"
		fill="url(#radialGradient3661)"/>
	</g>
<g id="Ortho_0_0"
   transform="rotate(0,232,255) translate(232,255) scale(1,1)"
  >
<g   fill="none"
   stroke="rgb(0, 0, 0)"
   stroke-linecap="butt"
   stroke-linejoin="miter"
   stroke-width="0.350000"
   transform="scale(1,-1)"
  >
<path id= "1" d=" M 0 0 L 130 0 " />
<path id= "2" d=" M 130 0 L 130 90 " />
<path id= "3" d=" M 130 90 L 0 90 " />
<path id= "4" d=" M 0 90 L 0 0 " />
<path id= "5" d=" M 65 46 L 115 46 " />
<path id= "6" d=" M 115 46 L 115 43 " />
<path id= "7" d=" M 115 43 L 65 43 " />
<path id= "8" d=" M 65 43 L 65 46 " />
<path id= "9" d=" M 65 52 L 115 52 " />
<path id= "10" d=" M 115 52 L 115 49 " />
<path id= "11" d=" M 115 49 L 65 49 " />
<path id= "12" d=" M 65 49 L 65 52 " />
<path id= "13" d=" M 65 58 L 115 58 " />
<path id= "14" d=" M 115 58 L 115 55 " />
<path id= "15" d=" M 115 55 L 65 55 " />
<path id= "16" d=" M 65 55 L 65 58 " />
<path id= "17" d=" M 65 64 L 115 64 " />
<path id= "18" d=" M 115 64 L 115 61 " />
<path id= "19" d=" M 115 61 L 65 61 " />
<path id= "20" d=" M 65 61 L 65 64 " />
<path id= "21" d=" M 65 70 L 115 70 " />
<path id= "22" d=" M 115 70 L 115 67 " />
<path id= "23" d=" M 115 67 L 65 67 " />
<path id= "24" d=" M 65 67 L 65 70 " />
<path id= "25" d=" M 36 17 L 68 17 " />
<path id= "26" d=" M 68 17 L 68 4 " />
<path id= "27" d=" M 68 4 L 36 4 " />
<path id= "28" d=" M 36 4 L 36 17 " />
<path id= "29" d=" M 17 17 L 17 4 " />
<path id= "30" d=" M 28 17 L 17 17 " />
<path id= "31" d=" M 28 4 L 28 17 " />
<path id= "32" d=" M 17 4 L 28 4 " />
<circle cx ="45" cy ="60" r ="5.9" /><circle cx ="25" cy ="60" r ="5.9" /><circle cx ="45" cy ="40" r ="5.9" /><circle cx ="25" cy ="40" r ="5.9" /><path id= "37" d=" M 72.5 22.8 L 84.6 22.8 " />
<path id= "38" d=" M 84.6 22.8 L 84.6 11.8 " />
<path id= "39" d=" M 84.6 11.8 L 72.5 11.8 " />
<path id= "40" d=" M 72.5 11.8 L 72.5 22.8 " />
<path id= "41" d=" M 104 22.8 L 113 22.8 " />
<path id= "42" d=" M 113 22.8 L 113 11.8 " />
<path id= "43" d=" M 113 11.8 L 104 11.8 " />
<path id= "44" d=" M 104 11.8 L 104 22.8 " />
<circle cx ="122.222" cy ="82.2218" r ="1.75" /><circle cx ="7.77817" cy ="7.77817" r ="1.75" /><circle cx ="7.77817" cy ="82.2218" r ="1.75" /><circle cx ="122.222" cy ="7.77817" r ="1.75" /></g>
</g>



</svg>

