<?xml version="1.0" encoding="UTF-8"?>

<svg xmlns="http://www.w3.org/2000/svg" version="1.1"
	width="841mm"
	height="594mm"
	viewBox="0 0 841 594">
	<!-- Working space 0 0 841 594 -->
	<defs>
		<radialGradient
			id="radialGradient3661"
			gradientUnits="userSpaceOnUse"
			cy="29.149"
			cx="282.65"
			gradientTransform="matrix(.14777 .23089 -.24680 .15795 -26.318 -62.617)"
			r="19.571">
				<stop stop-color="#71b2f8" offset="0"/>
				<stop stop-color="#002795" offset="1"/>
		</radialGradient>
		<radialGradient
			id="radialGradient3817"
			gradientUnits="userSpaceOnUse"
			cy="33.9"
			cx="270.58"
			gradientTransform="matrix(.26631 .065024 -.17931 .73438 -60.668 -36.938)"
			r="19.571">
				<stop stop-color="#ff6d0f" offset="0"/>
				<stop stop-color="#ff1000" offset="1"/>
		</radialGradient>
	</defs>
	<!-- Set display:none to hide FreeCAD Logo -->
	<g
		style="display:inline"
		id="freecad-logo"
		transform="translate(791, 546) scale(2.5)"
		fill-rule="evenodd"
		stroke-width=".45621">
		<path d="m0.22811 0.22835v13.256h2.9558v-5.1876h2.09v-2.0452h-2.09v-2.2075h5.1486v-3.8087l-8.1044-0.0075z"
			stroke="#370700"
			fill="url(#radialGradient3817)"/>
		<path d="m13.386 4.1792-1.7193 0.98645-0.75925-0.26348-0.72439-1.8513-1.1395 0.05988-0.51976 1.9144-0.72743 0.34835-1.8143-0.79367-0.76632 0.85156 0.98645 1.7193-0.26957 0.75702-1.8513 0.72439 0.065967 1.1417 1.9144 0.51976 0.34835 0.72743-0.79976 1.8121 0.85156 0.76632 1.7193-0.98645 0.76311 0.27179 0.7183 1.8491 1.1478-0.06375 0.51367-1.9166 0.72743-0.34835 1.8182 0.80198 0.76632-0.85156-0.98645-1.7193 0.2657-0.76533 1.8491-0.7183-0.05766-1.1456-1.9166-0.51367-0.34835-0.72743 0.7959-1.8204-0.85156-0.76632zm-2.5751 2.8195 0.35295 0.20478 0.30579 0.27725 0.24481 0.33087 0.17611 0.36787 0.10354 0.39656 0.01715 0.4064-0.0587 0.4063-0.13396 0.38571-0.2131 0.35681-0.26894 0.30192-0.33087 0.24481-0.36787 0.17611-0.39656 0.10354-0.40863 0.02325-0.4063-0.0587-0.38571-0.13396-0.35681-0.2131-0.2997-0.27503-0.24703-0.32478-0.17611-0.36787-0.10132-0.40264-0.02324-0.40863 0.05869-0.4063 0.13396-0.38571 0.21087-0.35072 0.27116-0.30801 0.33087-0.24481 0.36787-0.17611 0.40264-0.10132 0.40641-0.01715 0.4063 0.05869 0.38571 0.13396z" 
		stroke="#000137"
		fill="url(#radialGradient3661)"/>
	</g>
<g id="Ortho_0_0"
   transform="rotate(0,195.5,362) translate(195.5,362) scale(1,1)"
  >
<g   fill="none"
   stroke="rgb(0, 0, 0)"
   stroke-linecap="butt"
   stroke-linejoin="miter"
   stroke-width="0.350000"
   transform="scale(1,-1)"
  >
<path id= "1" d=" M 0 0 L 0 130 " />
<path id= "2" d=" M 0 130 L 100 130 " />
<path id= "3" d=" M 100 130 L 100 134 " />
<path id= "4" d=" M 100 134 L 175 134 " />
<path id= "5" d=" M 175 134 L 175 130 " />
<path id= "6" d=" M 175 130 L 275 130 " />
<path id= "7" d=" M 275 130 L 275 134 " />
<path id= "8" d=" M 275 134 L 350 134 " />
<path id= "9" d=" M 350 134 L 350 130 " />
<path id= "10" d=" M 350 130 L 450 130 " />
<path id= "11" d=" M 450 130 L 450 0 " />
<path id= "12" d=" M 450 0 L 350 0 " />
<path id= "13" d=" M 350 0 L 350 -4 " />
<path id= "14" d=" M 350 -4 L 275 -4 " />
<path id= "15" d=" M 275 -4 L 275 0 " />
<path id= "16" d=" M 275 0 L 175 0 " />
<path id= "17" d=" M 175 0 L 175 -4 " />
<path id= "18" d=" M 175 -4 L 100 -4 " />
<path id= "19" d=" M 100 -4 L 100 0 " />
<path id= "20" d=" M 100 0 L 0 0 " />
<circle cx ="70" cy ="65" r ="30" /><circle cx ="408" cy ="65" r ="30" /><path id= "23" d=" M 144.25 36.25 L 144.25 43.75 " />
<path id= "24" d=" M 159.75 36.25 L 144.25 36.25 " />
<path id= "25" d=" M 159.75 43.75 L 159.75 36.25 " />
<path id= "26" d=" M 144.25 43.75 L 159.75 43.75 " />
<path id= "27" d=" M 446 15 L 442 15 " />
<path id= "28" d=" M 442 15 L 442 5 " />
<path id= "29" d=" M 442 5 L 446 5 " />
<path id= "30" d=" M 446 5 L 446 15 " />
<path id= "31" d=" M 446 125 L 442 125 " />
<path id= "32" d=" M 442 125 L 442 115 " />
<path id= "33" d=" M 442 115 L 446 115 " />
<path id= "34" d=" M 446 115 L 446 125 " />
<path id= "35" d=" M 4 5 L 4 15 " />
<path id= "36" d=" M 8 5 L 4 5 " />
<path id= "37" d=" M 8 15 L 8 5 " />
<path id= "38" d=" M 4 15 L 8 15 " />
<path id= "39" d=" M 4 115 L 4 125 " />
<path id= "40" d=" M 8 115 L 4 115 " />
<path id= "41" d=" M 8 125 L 8 115 " />
<path id= "42" d=" M 4 125 L 8 125 " />
<circle cx ="152" cy ="90" r ="2.6" /></g>
</g>



</svg>

